PathFileType	4	(X/Y/Z)	C:/Users/beibeiliu/ov580/test_trc\sequence.22_training_dense_right.trc
DataRate	CameraRate	NumFrames	NumMarkers	Units	OrigDataRate	OrigDataStartFrame	OrigNumFrames
120	120	14	19	mm	120	284	324
Frame#	Time	ThumbCMC			ThumbMCP			ThumbIP			ThumbTip			IndexMCP			IndexPIP			IndexTip			MiddleMCP			MiddlePIP			MiddleTip			RingMCP			RingPIP			RingTip			PinkyMCP			PinkyPIP			PinkyTip			BackHand1			BackHand2			BackHand3	
		X0	Y0	Z0	X1	Y1	Z1	X2	Y2	Z2	X3	Y3	Z3	X4	Y4	Z4	X5	Y5	Z5	X6	Y6	Z6	X7	Y7	Z7	X8	Y8	Z8	X9	Y9	Z9	X10	Y10	Z10	X11	Y11	Z11	X12	Y12	Z12	X13	Y13	Z13	X14	Y14	Z14	X15	Y15	Z15	X16	Y16	Z16	X17	Y17	Z17	X18	Y18	Z18	
283	2.35833	192.259	31.0867	38.4024	187.261	34.4889	6.09082	185.106	42.1259	-13.766	182.805	49.8538	-32.3013	174.706	83.2705	8.85654	174.009	88.5866	-20.5901	173.103	85.1534	-44.1347	197.919	85.7851	-1.17714	204.667	64.8868	-22.0985	210.307	43.7213	1.34996	219.874	81.6892	-3.03807	219.455	55.2931	-13.3495	220.348	41.6554	9.38728	236.881	79.9798	3.55619	233.05	56.5916	-7.53927	224.824	47.8533	14.9163	224.303	74.667	46.3277	233.753	55.0015	65.4797	201.075	57.6442	58.6408	
284	2.36667	195.196	29.9898	39.3049	187.949	32.1147	6.2173	184.724	37.6566	-12.0258	181.885	46.9614	-36.1124	175.34	80.9995	9.04813	171.932	86.6866	-18.2538	171.965	82.8862	-43.8313	198.175	84.8033	-2.77932	203.568	62.6645	-23.8117	208.274	41.02	0.268496	218.492	80.4365	-5.03806	221.369	56.8481	-14.724	219.439	40.5836	11.1727	232.644	77.1753	1.09153	227.6	54.9819	-6.14186	225.133	46.9286	14.7208	227.116	74.4949	45.1063	233.486	53.2727	67.2236	205.892	57.4741	59.2193	
285	2.375	194.768	32.2697	37.9541	190.463	33.7128	7.27245	185.21	38.0236	-13.4608	185.073	46.9464	-33.9049	175.588	81.2328	7.22906	175.803	86.8852	-19.042	173.028	82.5172	-43.1594	196.834	84.0523	-1.61585	202.759	62.5199	-24.0708	211.062	41.3721	-2.83245	219.608	78.773	-6.21909	219.569	56.5345	-16.3019	223.112	39.9998	9.76501	235.866	76.9072	-1.76173	229.596	53.3286	-7.36255	226.947	43.0172	13.648	223.619	73.4473	47.4383	231.37	56.6348	63.2243	203.873	55.0791	58.5923	
286	2.38333	195.596	32.2361	37.1033	189.124	32.1228	5.76908	185.019	37.124	-15.7395	185.279	45.2933	-36.0531	178.543	82.3327	6.31664	174.751	85.9173	-17.3923	173.517	82.2303	-42.4465	199.542	85.2676	-6.34395	206.071	66.0602	-25.6357	208.27	40.5829	-2.30158	218.129	79.1748	-7.54914	218.727	53.0486	-14.9544	219.63	40.9284	7.0291	236.885	77.7848	0.440727	231.218	54.8436	-9.02596	227.352	43.6133	16.7429	226.641	73.3265	45.7202	232.977	54.4324	64.2471	201.439	56.7023	57.9909	
287	2.39167	193.133	28.7667	39.0221	189.528	30.7228	6.31111	184.469	36.6168	-14.8476	187.299	47.1063	-34.4537	176.926	82.0516	6.79965	171.107	84.2018	-18.6658	174.715	81.8752	-45.932	195.936	84.0204	-2.27199	203.006	66.1132	-26.3724	207.399	40.2275	-1.31562	220.763	79.7272	-5.6836	218.583	52.2729	-14.9569	222.31	40.166	12.2743	236.519	76.4757	-2.51667	231.342	51.5537	-7.10694	225.124	44.9209	12.1975	227.779	75.6154	46.0194	233.161	57.5238	61.5006	201.237	55.3295	56.0175	
288	2.4	192.809	27.2089	39.0989	186.313	30.9768	4.69461	184.726	39.2336	-17.6391	185.405	46.9675	-38.5831	178.097	82.8222	4.80816	174.374	86.5847	-18.8373	175.393	82.5303	-46.3972	197.442	85.2578	-6.87267	205.327	64.1794	-25.5856	208.047	40.9241	-4.8749	216.661	79.4564	-3.50715	219.23	54.5684	-15.9641	217.417	41.2743	10.642	235.664	76.4324	-3.61924	233.817	54.5742	-10.4288	224.352	47.234	17.3376	226.02	73.4497	46.8699	228.567	57.2399	63.2481	205.712	56.4248	55.9189	
289	2.40833	192.888	30.1857	38.3169	187.003	29.9396	6.53893	183.087	35.177	-16.2511	186.929	46.0451	-34.1467	175.034	81.7504	5.63585	175.433	86.6311	-19.883	172.964	82.5188	-42.7294	195.112	84.3451	-4.31516	204.511	67.4099	-26.5354	211.592	42.2198	-4.94223	217.068	78.6028	-7.61949	220.173	53.1952	-16.3965	221.408	41.0393	8.90718	235.547	76.4779	-5.07711	228.606	54.4312	-8.36587	226.258	45.6619	12.7438	229.172	73.7242	44.3953	234.381	56.4487	63.5512	202.318	58.7085	56.7816	
290	2.41667	192.273	29.3153	37.7304	188.219	31.8301	3.94851	184.935	40.1694	-17.9776	184.068	47.8456	-38.06	173.836	82.3195	1.98769	175.361	87.3109	-23.3959	176.279	84.1188	-42.918	197.39	84.6957	-7.7715	203.992	63.6692	-27.2574	210.67	41.5497	-3.37068	216.202	79.2792	-5.70613	220.199	53.6163	-15.7336	218.865	41.0822	8.87378	238.113	78.3758	-0.95297	228.299	54.2769	-8.12828	228.878	44.1785	16.5513	228.246	75.4635	43.4037	233.289	57.4983	62.6051	202.342	59.2204	55.0925	
291	2.425	195.133	31.7167	35.8843	187.434	30.24	3.75886	187.032	39.2832	-15.5011	183.172	45.4028	-38.59	177.342	81.9286	2.32877	177.014	85.7583	-21.337	176.331	81.9521	-47.4797	200.679	85.1499	-4.60916	205.25	64.553	-27.331	210.865	41.1746	-6.11469	218.156	78.442	-9.44875	220.777	56.103	-17.6643	218.746	41.5617	8.81994	238.333	77.2418	-1.06593	233.239	52.8452	-8.48491	230.216	43.2314	16.2404	226.162	75.5955	44.0907	230.36	56.7501	60.0868	205.163	56.9885	57.2755	
292	2.43333	195.298	29.5948	36.7788	188.573	28.0631	6.89423	184.202	38.973	-18.7818	181.802	44.7614	-37.9774	179.749	81.5178	3.41296	178.129	85.8939	-21.9052	178.392	81.7849	-46.692	201.599	84.5316	-7.62809	207.026	66.0103	-27.9296	215.929	41.9668	-3.33869	222.991	79.698	-8.57275	222.26	51.9176	-15.1495	224.387	40.7011	5.90857	237.623	78.2135	0.531381	234.114	52.0136	-8.47965	227.907	43.1674	15.2178	227.371	78.0739	42.3837	234.99	56.1452	63.9106	204.506	58.0263	55.2949	
293	2.44167	192.846	31.4636	34.8925	191.024	32.4288	7.65497	186.098	38.1361	-13.8132	179.351	42.0628	-35.6461	182.179	82.6117	2.42775	179.993	85.6454	-25.9301	180.143	81.6478	-45.8103	204.467	84.9978	-6.38597	208.157	60.0739	-27.3783	214.027	39.8817	-4.56541	222.36	77.8049	-7.2652	224.906	51.3093	-15.3815	222.758	40.0083	8.46728	236.594	75.3149	-2.45671	233.719	53.6662	-8.73027	229.307	43.7306	11.7445	226.872	72.5885	43.3899	235.163	54.5628	65.0339	203.342	54.837	55.4813	
294	2.45	194.186	29.834	36.7591	187.036	30.2389	7.53338	183.809	36.1551	-11.8965	178.102	43.8184	-34.0247	183.971	83.1643	1.24491	179.519	86.1272	-27.0789	180.583	80.996	-47.2206	205.789	84.2988	-7.53085	212.495	59.7538	-26.2822	216.168	39.0687	-2.9841	221.278	78.6842	-5.14727	224.794	50.8752	-15.9766	221.182	38.5689	8.09379	242.372	76.3563	-1.15871	238.006	51.5346	-9.90481	226.506	42.3426	12.1254	227.379	75.4627	43.7729	231.946	51.9602	64.3309	205.021	57.0972	56.335	
295	2.45833	192.769	26.8267	38.4349	187.176	31.3784	7.75587	181.279	37.4823	-13.1655	175.831	43.9448	-33.3523	181.757	81.0757	0.556683	180.517	85.1149	-28.2075	182.407	79.8339	-51.6947	203.586	81.8262	-7.0989	209.919	61.9351	-29.552	215.631	37.5393	-8.33932	222.795	76.7698	-8.46131	225.015	52.0563	-18.0853	225.932	36.5639	5.32634	239.798	72.4558	-5.22813	236.093	49.9824	-9.67124	227.193	42.1129	9.61404	227.091	71.8194	42.2291	231.757	55.7764	61.5243	201.364	57.485	53.0291	
296	2.46667	194.05	30.6233	36.4965	188.422	32.661	6.60848	178.085	38.0837	-16.8458	173.734	43.6335	-35.0365	183.302	79.849	-3.37966	183.447	83.6298	-28.1217	185.952	76.3082	-55.017	207.991	81.7351	-12.9012	211.329	60.4755	-33.2632	217.76	33.6801	-15.2464	223.647	74.6854	-13.1833	223.453	48.0878	-20.59	224.223	34.6263	-0.393003	241.615	71.1558	-7.34353	240.688	49.3586	-12.7832	229.698	36.3808	11.6836	228.264	70.8007	40.3287	234.349	56.7804	59.2121	201.653	57.5684	52.236	
